<?xml version="1.0" encoding="utf-8"?>
<svg width="24px" height="24px" viewBox="0 0 24 24" version="1.1" xmlns:xlink="http://www.w3.org/1999/xlink" xmlns="http://www.w3.org/2000/svg">
  <g id="icon">
    <path d="M0 0L24 0L24 24L0 24L0 0Z" id="Rectangle-12" fill="none" stroke="none" />
    <path d="M11.4555 10.7539L11.7361 11.0245L12.5278 11.0245L18 16.5067L16.5067 18L11.0245 12.5278L11.0245 11.7361L10.7539 11.4555C9.61136 12.4376 8.12806 13.029 6.51448 13.029C2.91648 13.029 0 10.1125 0 6.51448C0 2.91648 2.91648 0 6.51448 0C10.1125 0 13.029 2.91648 13.029 6.51448C13.029 8.12806 12.4376 9.61136 11.4555 10.7539ZM2.00445 6.51448C2.00445 9.01002 4.01893 11.0245 6.51448 11.0245C9.01002 11.0245 11.0245 9.01002 11.0245 6.51448C11.0245 4.01893 9.01002 2.00445 6.51448 2.00445C4.01893 2.00445 2.00445 4.01893 2.00445 6.51448Z" transform="translate(3 3)" id="Shape" fill="#453257" fill-rule="evenodd" stroke="none" />
  </g>
</svg>
